<mxfile host="Electron" modified="2024-05-15T09:16:15.879Z" agent="Mozilla/5.0 (Windows NT 10.0; Win64; x64) AppleWebKit/537.36 (KHTML, like Gecko) draw.io/24.4.0 Chrome/120.0.6099.109 Electron/28.1.0 Safari/537.36" etag="sOJyhqYzy9U265Vokdtb" version="24.4.0" type="device">
  <diagram name="Страница — 1" id="B2JXDRMYOMBQmyMjDrTK">
    <mxGraphModel dx="1434" dy="854" grid="1" gridSize="10" guides="1" tooltips="1" connect="1" arrows="1" fold="1" page="1" pageScale="1" pageWidth="827" pageHeight="1169" math="0" shadow="0">
      <root>
        <mxCell id="0" />
        <mxCell id="1" parent="0" />
        <mxCell id="1ba_TmKiakRHr8W9hCVP-1" style="edgeStyle=orthogonalEdgeStyle;rounded=0;orthogonalLoop=1;jettySize=auto;html=1;exitX=0.5;exitY=1;exitDx=0;exitDy=0;exitPerimeter=0;entryX=0.5;entryY=0;entryDx=0;entryDy=0;" edge="1" parent="1" source="1ba_TmKiakRHr8W9hCVP-2" target="1ba_TmKiakRHr8W9hCVP-7">
          <mxGeometry relative="1" as="geometry" />
        </mxCell>
        <mxCell id="1ba_TmKiakRHr8W9hCVP-2" value="Начало работы" style="strokeWidth=2;html=1;shape=mxgraph.flowchart.terminator;whiteSpace=wrap;" vertex="1" parent="1">
          <mxGeometry x="364" y="10" width="100" height="60" as="geometry" />
        </mxCell>
        <mxCell id="1ba_TmKiakRHr8W9hCVP-3" style="edgeStyle=orthogonalEdgeStyle;rounded=0;orthogonalLoop=1;jettySize=auto;html=1;exitX=0;exitY=0.5;exitDx=0;exitDy=0;entryX=0.5;entryY=0;entryDx=0;entryDy=0;" edge="1" parent="1" source="1ba_TmKiakRHr8W9hCVP-7" target="1ba_TmKiakRHr8W9hCVP-12">
          <mxGeometry relative="1" as="geometry" />
        </mxCell>
        <mxCell id="1ba_TmKiakRHr8W9hCVP-4" value="Нет" style="edgeLabel;html=1;align=center;verticalAlign=middle;resizable=0;points=[];" vertex="1" connectable="0" parent="1ba_TmKiakRHr8W9hCVP-3">
          <mxGeometry x="-0.8505" y="-1" relative="1" as="geometry">
            <mxPoint as="offset" />
          </mxGeometry>
        </mxCell>
        <mxCell id="1ba_TmKiakRHr8W9hCVP-5" style="edgeStyle=orthogonalEdgeStyle;rounded=0;orthogonalLoop=1;jettySize=auto;html=1;exitX=1;exitY=0.5;exitDx=0;exitDy=0;entryX=0.5;entryY=0;entryDx=0;entryDy=0;" edge="1" parent="1" source="1ba_TmKiakRHr8W9hCVP-7" target="1ba_TmKiakRHr8W9hCVP-15">
          <mxGeometry relative="1" as="geometry" />
        </mxCell>
        <mxCell id="1ba_TmKiakRHr8W9hCVP-6" value="Да" style="edgeLabel;html=1;align=center;verticalAlign=middle;resizable=0;points=[];" vertex="1" connectable="0" parent="1ba_TmKiakRHr8W9hCVP-5">
          <mxGeometry x="-0.8566" y="1" relative="1" as="geometry">
            <mxPoint as="offset" />
          </mxGeometry>
        </mxCell>
        <mxCell id="1ba_TmKiakRHr8W9hCVP-7" value="action == 1" style="rhombus;whiteSpace=wrap;html=1;" vertex="1" parent="1">
          <mxGeometry x="359" y="100" width="110" height="80" as="geometry" />
        </mxCell>
        <mxCell id="1ba_TmKiakRHr8W9hCVP-8" style="edgeStyle=orthogonalEdgeStyle;rounded=0;orthogonalLoop=1;jettySize=auto;html=1;exitX=0;exitY=0.5;exitDx=0;exitDy=0;" edge="1" parent="1" source="1ba_TmKiakRHr8W9hCVP-12" target="1ba_TmKiakRHr8W9hCVP-13">
          <mxGeometry relative="1" as="geometry" />
        </mxCell>
        <mxCell id="1ba_TmKiakRHr8W9hCVP-9" value="нет" style="edgeLabel;html=1;align=center;verticalAlign=middle;resizable=0;points=[];" vertex="1" connectable="0" parent="1ba_TmKiakRHr8W9hCVP-8">
          <mxGeometry x="-0.8" relative="1" as="geometry">
            <mxPoint as="offset" />
          </mxGeometry>
        </mxCell>
        <mxCell id="1ba_TmKiakRHr8W9hCVP-10" style="edgeStyle=orthogonalEdgeStyle;rounded=0;orthogonalLoop=1;jettySize=auto;html=1;exitX=1;exitY=0.5;exitDx=0;exitDy=0;" edge="1" parent="1" source="1ba_TmKiakRHr8W9hCVP-12" target="1ba_TmKiakRHr8W9hCVP-14">
          <mxGeometry relative="1" as="geometry" />
        </mxCell>
        <mxCell id="1ba_TmKiakRHr8W9hCVP-11" value="Да" style="edgeLabel;html=1;align=center;verticalAlign=middle;resizable=0;points=[];" vertex="1" connectable="0" parent="1ba_TmKiakRHr8W9hCVP-10">
          <mxGeometry x="-0.6809" y="1" relative="1" as="geometry">
            <mxPoint as="offset" />
          </mxGeometry>
        </mxCell>
        <mxCell id="1ba_TmKiakRHr8W9hCVP-12" value="action == 2" style="rhombus;whiteSpace=wrap;html=1;" vertex="1" parent="1">
          <mxGeometry x="150" y="200" width="110" height="80" as="geometry" />
        </mxCell>
        <mxCell id="1ba_TmKiakRHr8W9hCVP-13" value="Ошибка Неккоректный ввод" style="strokeWidth=2;html=1;shape=mxgraph.flowchart.terminator;whiteSpace=wrap;" vertex="1" parent="1">
          <mxGeometry x="50" y="310" width="100" height="60" as="geometry" />
        </mxCell>
        <mxCell id="1ba_TmKiakRHr8W9hCVP-40" style="edgeStyle=orthogonalEdgeStyle;rounded=0;orthogonalLoop=1;jettySize=auto;html=1;exitX=0.5;exitY=1;exitDx=0;exitDy=0;entryX=0.5;entryY=0;entryDx=0;entryDy=0;" edge="1" parent="1" source="1ba_TmKiakRHr8W9hCVP-14" target="1ba_TmKiakRHr8W9hCVP-39">
          <mxGeometry relative="1" as="geometry" />
        </mxCell>
        <mxCell id="1ba_TmKiakRHr8W9hCVP-14" value="Ввод текста" style="shape=process;whiteSpace=wrap;html=1;backgroundOutline=1;" vertex="1" parent="1">
          <mxGeometry x="354" y="210" width="120" height="60" as="geometry" />
        </mxCell>
        <mxCell id="1ba_TmKiakRHr8W9hCVP-17" style="edgeStyle=orthogonalEdgeStyle;rounded=0;orthogonalLoop=1;jettySize=auto;html=1;exitX=0.5;exitY=1;exitDx=0;exitDy=0;entryX=0.5;entryY=0;entryDx=0;entryDy=0;" edge="1" parent="1" source="1ba_TmKiakRHr8W9hCVP-15" target="1ba_TmKiakRHr8W9hCVP-16">
          <mxGeometry relative="1" as="geometry" />
        </mxCell>
        <mxCell id="1ba_TmKiakRHr8W9hCVP-15" value="Ввод и обработка" style="shape=process;whiteSpace=wrap;html=1;backgroundOutline=1;" vertex="1" parent="1">
          <mxGeometry x="590" y="210" width="120" height="60" as="geometry" />
        </mxCell>
        <mxCell id="1ba_TmKiakRHr8W9hCVP-23" style="edgeStyle=orthogonalEdgeStyle;rounded=0;orthogonalLoop=1;jettySize=auto;html=1;exitX=0.5;exitY=1;exitDx=0;exitDy=0;entryX=0.5;entryY=0;entryDx=0;entryDy=0;" edge="1" parent="1" source="1ba_TmKiakRHr8W9hCVP-16" target="1ba_TmKiakRHr8W9hCVP-22">
          <mxGeometry relative="1" as="geometry" />
        </mxCell>
        <mxCell id="1ba_TmKiakRHr8W9hCVP-24" value="Да" style="edgeLabel;html=1;align=center;verticalAlign=middle;resizable=0;points=[];" vertex="1" connectable="0" parent="1ba_TmKiakRHr8W9hCVP-23">
          <mxGeometry x="-0.5429" y="1" relative="1" as="geometry">
            <mxPoint as="offset" />
          </mxGeometry>
        </mxCell>
        <mxCell id="1ba_TmKiakRHr8W9hCVP-16" value="Цикл по символам открытого текста" style="rhombus;whiteSpace=wrap;html=1;" vertex="1" parent="1">
          <mxGeometry x="590" y="300" width="120" height="80" as="geometry" />
        </mxCell>
        <mxCell id="1ba_TmKiakRHr8W9hCVP-19" value="Ошибка Неккоректный ввод" style="strokeWidth=2;html=1;shape=mxgraph.flowchart.terminator;whiteSpace=wrap;" vertex="1" parent="1">
          <mxGeometry x="710" y="390" width="100" height="60" as="geometry" />
        </mxCell>
        <mxCell id="1ba_TmKiakRHr8W9hCVP-20" style="edgeStyle=orthogonalEdgeStyle;rounded=0;orthogonalLoop=1;jettySize=auto;html=1;exitX=1;exitY=0.5;exitDx=0;exitDy=0;entryX=0.5;entryY=0;entryDx=0;entryDy=0;entryPerimeter=0;" edge="1" parent="1" source="1ba_TmKiakRHr8W9hCVP-16" target="1ba_TmKiakRHr8W9hCVP-19">
          <mxGeometry relative="1" as="geometry" />
        </mxCell>
        <mxCell id="1ba_TmKiakRHr8W9hCVP-21" value="Нет" style="edgeLabel;html=1;align=center;verticalAlign=middle;resizable=0;points=[];" vertex="1" connectable="0" parent="1ba_TmKiakRHr8W9hCVP-20">
          <mxGeometry x="-0.4" y="-1" relative="1" as="geometry">
            <mxPoint as="offset" />
          </mxGeometry>
        </mxCell>
        <mxCell id="1ba_TmKiakRHr8W9hCVP-29" style="edgeStyle=orthogonalEdgeStyle;rounded=0;orthogonalLoop=1;jettySize=auto;html=1;exitX=0.5;exitY=1;exitDx=0;exitDy=0;entryX=0.5;entryY=0;entryDx=0;entryDy=0;" edge="1" parent="1" source="1ba_TmKiakRHr8W9hCVP-22" target="1ba_TmKiakRHr8W9hCVP-28">
          <mxGeometry relative="1" as="geometry" />
        </mxCell>
        <mxCell id="1ba_TmKiakRHr8W9hCVP-30" value="Да" style="edgeLabel;html=1;align=center;verticalAlign=middle;resizable=0;points=[];" vertex="1" connectable="0" parent="1ba_TmKiakRHr8W9hCVP-29">
          <mxGeometry x="-0.5" y="-1" relative="1" as="geometry">
            <mxPoint as="offset" />
          </mxGeometry>
        </mxCell>
        <mxCell id="1ba_TmKiakRHr8W9hCVP-22" value="Для каждой строки в алфавите" style="rhombus;whiteSpace=wrap;html=1;" vertex="1" parent="1">
          <mxGeometry x="590" y="450" width="120" height="80" as="geometry" />
        </mxCell>
        <mxCell id="1ba_TmKiakRHr8W9hCVP-25" value="Ошибка Неккоректный ввод" style="strokeWidth=2;html=1;shape=mxgraph.flowchart.terminator;whiteSpace=wrap;" vertex="1" parent="1">
          <mxGeometry x="710" y="540" width="100" height="60" as="geometry" />
        </mxCell>
        <mxCell id="1ba_TmKiakRHr8W9hCVP-26" style="edgeStyle=orthogonalEdgeStyle;rounded=0;orthogonalLoop=1;jettySize=auto;html=1;exitX=1;exitY=0.5;exitDx=0;exitDy=0;entryX=0.5;entryY=0;entryDx=0;entryDy=0;entryPerimeter=0;" edge="1" parent="1" source="1ba_TmKiakRHr8W9hCVP-22" target="1ba_TmKiakRHr8W9hCVP-25">
          <mxGeometry relative="1" as="geometry" />
        </mxCell>
        <mxCell id="1ba_TmKiakRHr8W9hCVP-27" value="Нет" style="edgeLabel;html=1;align=center;verticalAlign=middle;resizable=0;points=[];" vertex="1" connectable="0" parent="1ba_TmKiakRHr8W9hCVP-26">
          <mxGeometry x="-0.54" y="1" relative="1" as="geometry">
            <mxPoint as="offset" />
          </mxGeometry>
        </mxCell>
        <mxCell id="1ba_TmKiakRHr8W9hCVP-36" style="edgeStyle=orthogonalEdgeStyle;rounded=0;orthogonalLoop=1;jettySize=auto;html=1;exitX=0.5;exitY=1;exitDx=0;exitDy=0;entryX=0.5;entryY=0;entryDx=0;entryDy=0;" edge="1" parent="1" source="1ba_TmKiakRHr8W9hCVP-28" target="1ba_TmKiakRHr8W9hCVP-35">
          <mxGeometry relative="1" as="geometry">
            <Array as="points">
              <mxPoint x="650" y="740" />
              <mxPoint x="524" y="740" />
            </Array>
          </mxGeometry>
        </mxCell>
        <mxCell id="1ba_TmKiakRHr8W9hCVP-37" value="Да" style="edgeLabel;html=1;align=center;verticalAlign=middle;resizable=0;points=[];" vertex="1" connectable="0" parent="1ba_TmKiakRHr8W9hCVP-36">
          <mxGeometry x="-0.25" relative="1" as="geometry">
            <mxPoint as="offset" />
          </mxGeometry>
        </mxCell>
        <mxCell id="1ba_TmKiakRHr8W9hCVP-28" value="Если &lt;code&gt;letter&lt;/code&gt; равен &lt;code&gt;alphabet[i][j]&lt;/code&gt;, где &lt;code&gt;i&lt;/code&gt; — индекс строки, а &lt;code&gt;j&lt;/code&gt; — индекс символа" style="rhombus;whiteSpace=wrap;html=1;" vertex="1" parent="1">
          <mxGeometry x="565" y="590" width="170" height="130" as="geometry" />
        </mxCell>
        <mxCell id="1ba_TmKiakRHr8W9hCVP-31" value="Ошибка Неккоректный ввод" style="strokeWidth=2;html=1;shape=mxgraph.flowchart.terminator;whiteSpace=wrap;" vertex="1" parent="1">
          <mxGeometry x="720" y="720" width="100" height="60" as="geometry" />
        </mxCell>
        <mxCell id="1ba_TmKiakRHr8W9hCVP-32" style="edgeStyle=orthogonalEdgeStyle;rounded=0;orthogonalLoop=1;jettySize=auto;html=1;exitX=1;exitY=0.5;exitDx=0;exitDy=0;entryX=0.5;entryY=0;entryDx=0;entryDy=0;entryPerimeter=0;" edge="1" parent="1" source="1ba_TmKiakRHr8W9hCVP-28" target="1ba_TmKiakRHr8W9hCVP-31">
          <mxGeometry relative="1" as="geometry" />
        </mxCell>
        <mxCell id="1ba_TmKiakRHr8W9hCVP-33" value="Нет" style="edgeLabel;html=1;align=center;verticalAlign=middle;resizable=0;points=[];" vertex="1" connectable="0" parent="1ba_TmKiakRHr8W9hCVP-32">
          <mxGeometry x="-0.48" y="1" relative="1" as="geometry">
            <mxPoint as="offset" />
          </mxGeometry>
        </mxCell>
        <mxCell id="1ba_TmKiakRHr8W9hCVP-35" value="Вывод результата" style="shape=parallelogram;perimeter=parallelogramPerimeter;whiteSpace=wrap;html=1;fixedSize=1;" vertex="1" parent="1">
          <mxGeometry x="464" y="770" width="120" height="60" as="geometry" />
        </mxCell>
        <mxCell id="1ba_TmKiakRHr8W9hCVP-42" style="edgeStyle=orthogonalEdgeStyle;rounded=0;orthogonalLoop=1;jettySize=auto;html=1;exitX=0.5;exitY=1;exitDx=0;exitDy=0;entryX=0.5;entryY=0;entryDx=0;entryDy=0;" edge="1" parent="1" source="1ba_TmKiakRHr8W9hCVP-39" target="1ba_TmKiakRHr8W9hCVP-41">
          <mxGeometry relative="1" as="geometry" />
        </mxCell>
        <mxCell id="1ba_TmKiakRHr8W9hCVP-39" value="Разделение строки на подстроки по пробелам" style="rounded=0;whiteSpace=wrap;html=1;" vertex="1" parent="1">
          <mxGeometry x="354" y="310" width="120" height="60" as="geometry" />
        </mxCell>
        <mxCell id="1ba_TmKiakRHr8W9hCVP-49" style="edgeStyle=orthogonalEdgeStyle;rounded=0;orthogonalLoop=1;jettySize=auto;html=1;exitX=0.5;exitY=1;exitDx=0;exitDy=0;entryX=0.5;entryY=0;entryDx=0;entryDy=0;" edge="1" parent="1" source="1ba_TmKiakRHr8W9hCVP-41" target="1ba_TmKiakRHr8W9hCVP-35">
          <mxGeometry relative="1" as="geometry">
            <Array as="points">
              <mxPoint x="414" y="740" />
              <mxPoint x="524" y="740" />
            </Array>
          </mxGeometry>
        </mxCell>
        <mxCell id="1ba_TmKiakRHr8W9hCVP-41" value="Проверка, если letter не пустой" style="rhombus;whiteSpace=wrap;html=1;" vertex="1" parent="1">
          <mxGeometry x="359" y="400" width="110" height="80" as="geometry" />
        </mxCell>
        <mxCell id="1ba_TmKiakRHr8W9hCVP-43" value="Ошибка Неккоректный ввод" style="strokeWidth=2;html=1;shape=mxgraph.flowchart.terminator;whiteSpace=wrap;" vertex="1" parent="1">
          <mxGeometry x="254" y="480" width="100" height="60" as="geometry" />
        </mxCell>
        <mxCell id="1ba_TmKiakRHr8W9hCVP-44" style="edgeStyle=orthogonalEdgeStyle;rounded=0;orthogonalLoop=1;jettySize=auto;html=1;exitX=0;exitY=0.5;exitDx=0;exitDy=0;entryX=0.5;entryY=0;entryDx=0;entryDy=0;entryPerimeter=0;" edge="1" parent="1" source="1ba_TmKiakRHr8W9hCVP-41" target="1ba_TmKiakRHr8W9hCVP-43">
          <mxGeometry relative="1" as="geometry" />
        </mxCell>
        <mxCell id="1ba_TmKiakRHr8W9hCVP-45" value="Нет" style="edgeLabel;html=1;align=center;verticalAlign=middle;resizable=0;points=[];" vertex="1" connectable="0" parent="1ba_TmKiakRHr8W9hCVP-44">
          <mxGeometry x="-0.6632" y="-1" relative="1" as="geometry">
            <mxPoint as="offset" />
          </mxGeometry>
        </mxCell>
        <mxCell id="1ba_TmKiakRHr8W9hCVP-50" value="Конец работы" style="strokeWidth=2;html=1;shape=mxgraph.flowchart.terminator;whiteSpace=wrap;" vertex="1" parent="1">
          <mxGeometry x="474" y="860" width="91" height="20" as="geometry" />
        </mxCell>
        <mxCell id="1ba_TmKiakRHr8W9hCVP-51" style="edgeStyle=orthogonalEdgeStyle;rounded=0;orthogonalLoop=1;jettySize=auto;html=1;exitX=0.5;exitY=1;exitDx=0;exitDy=0;entryX=0.5;entryY=0;entryDx=0;entryDy=0;entryPerimeter=0;" edge="1" parent="1" source="1ba_TmKiakRHr8W9hCVP-35" target="1ba_TmKiakRHr8W9hCVP-50">
          <mxGeometry relative="1" as="geometry" />
        </mxCell>
      </root>
    </mxGraphModel>
  </diagram>
</mxfile>
